<svg width="30" height="30" viewBox="0 0 30 30" fill="none" xmlns="http://www.w3.org/2000/svg">
<path d="M10.0143 9.96655H5.50608V13.9739H10.0143V9.96655Z" fill="#F2BFCB"/>
<path d="M17.2772 9.96655H12.7686V13.9739H17.2772V9.96655Z" fill="#F2BFCB"/>
<path d="M24.5393 9.96655H20.032V13.9739H24.5393V9.96655Z" fill="#F2BFCB"/>
<path d="M10.0143 15.9771H5.50608V19.984H10.0143V15.9771Z" fill="#F2BFCB"/>
<path d="M17.2772 15.9771H12.7686V19.984H17.2772V15.9771Z" fill="#F2BFCB"/>
<path d="M24.5393 15.9771H20.032V19.984H24.5393V15.9771Z" fill="#F2BFCB"/>
<path d="M10.0143 21.9878H5.50608V25.9947H10.0143V21.9878Z" fill="#F2BFCB"/>
<path d="M17.2772 21.9878H12.7686V25.9947H17.2772V21.9878Z" fill="#F2BFCB"/>
<path d="M24.5393 21.9878H20.032V25.9947H24.5393V21.9878Z" fill="#F2BFCB"/>
<path d="M7.50954 5.88343C8.02809 5.88343 8.44885 5.4631 8.44885 4.94455V1.93893C8.44885 1.42033 8.02809 1 7.50954 1C6.99099 1 6.57023 1.42033 6.57023 1.93893V4.94455C6.57023 5.4631 6.99099 5.88343 7.50954 5.88343Z" fill="#F2BFCB"/>
<path d="M15.0225 5.88343C15.5411 5.88343 15.9619 5.4631 15.9619 4.94455V1.93893C15.9619 1.42033 15.5411 1 15.0225 1C14.504 1 14.0836 1.42033 14.0836 1.93893V4.94455C14.0836 5.4631 14.504 5.88343 15.0225 5.88343Z" fill="#F2BFCB"/>
<path d="M24.2261 3.45532V4.94441C24.2261 5.87617 23.4681 6.63463 22.5355 6.63463C21.6038 6.63463 20.8454 5.87612 20.8454 4.94441V3.45532H16.7132V4.94441C16.7132 5.87617 15.9548 6.63463 15.0226 6.63463C14.0909 6.63463 13.3324 5.87612 13.3324 4.94441V3.45532H9.20032V4.94441C9.20032 5.87617 8.44181 6.63463 7.50966 6.63463C6.57789 6.63463 5.81905 5.87612 5.81905 4.94441V3.45532H2V28.9999H28.0459V3.45532H24.2261ZM26.5429 14.9757V20.9861V21.4864V27.4973H19.0299H18.5295H11.5169H11.0156H3.50265V21.4865V20.9861V14.9757V7.9631H11.0156H11.5169H18.5295H19.0299H26.5429V14.9757Z" fill="#F2BFCB"/>
<path d="M22.5355 5.88343C23.0545 5.88343 23.4748 5.4631 23.4748 4.94455V1.93893C23.4748 1.42033 23.0545 1 22.5355 1C22.0169 1 21.5965 1.42033 21.5965 1.93893V4.94455C21.5966 5.4631 22.0169 5.88343 22.5355 5.88343Z" fill="#F2BFCB"/>
</svg>
