<svg width="40" height="40" viewBox="0 0 40 40" fill="none" xmlns="http://www.w3.org/2000/svg">
<path d="M28.0659 17.5003H23.3794C22.8937 17.5003 22.4999 17.1063 22.4999 16.6208V11.9339C22.4999 11.4484 22.1062 11.0547 21.6205 11.0547H18.3794C17.8937 11.0547 17.4999 11.4484 17.4999 11.9339V16.6208C17.4999 17.1063 17.1062 17.5003 16.6205 17.5003H11.9339C11.4481 17.5003 11.0544 17.894 11.0544 18.3798V21.6208C11.0544 22.1063 11.4481 22.5003 11.9339 22.5003H16.6205C17.1062 22.5003 17.4999 22.894 17.4999 23.3798V28.0661C17.4999 28.552 17.8937 28.9456 18.3794 28.9456H21.6205C22.1062 28.9456 22.4999 28.552 22.4999 28.0661V23.3798C22.4999 22.894 22.8937 22.5003 23.3794 22.5003H28.0659C28.5516 22.5003 28.9455 22.1063 28.9455 21.6208V18.3798C28.9455 17.894 28.5516 17.5003 28.0659 17.5003Z" fill="#F2BFCB"/>
<path d="M20 0C8.95414 0 0 8.95445 0 20C0 31.0459 8.95414 40 20 40C31.0455 40 40 31.0459 40 20C40 8.95445 31.0455 0 20 0ZM20 35C11.7288 35 5 28.2712 5 20C5 11.7291 11.7288 5 20 5C28.2709 5 35 11.7291 35 20C35 28.2712 28.2709 35 20 35Z" fill="#F2BFCB"/>
</svg>
