<svg width="30" height="30" viewBox="0 0 30 30" fill="none" xmlns="http://www.w3.org/2000/svg">
<path d="M28.3136 12.4846L25.2592 12.3435C24.9802 12.3309 24.7338 12.1578 24.6278 11.9003L23.9985 10.3858C23.8925 10.1272 23.9439 9.83098 24.1327 9.62486L26.1927 7.36452C26.4507 7.0808 26.4413 6.64237 26.1697 6.37019L23.6303 3.83035C23.3576 3.55871 22.9192 3.54821 22.635 3.80781L20.3757 5.86778C20.1691 6.05607 19.8723 6.10851 19.6143 6.001L18.0998 5.37275C17.8417 5.26633 17.6697 5.0198 17.6571 4.74029L17.5155 1.68704C17.4976 1.30264 17.1809 1 16.797 1H13.2036C12.8197 1 12.5019 1.30264 12.4841 1.68698L12.3435 4.74023C12.331 5.01974 12.1589 5.26622 11.9009 5.37269L10.3863 6.001C10.1273 6.10851 9.83043 6.05607 9.62486 5.86778L7.36457 3.80781C7.08031 3.54827 6.64188 3.55822 6.36921 3.83035L3.83089 6.37019C3.55822 6.64237 3.54882 7.0808 3.80781 7.36452L5.86778 9.62486C6.05656 9.83098 6.10693 10.1272 5.9999 10.3858L5.37269 11.9003C5.26573 12.1578 5.02029 12.3309 4.74029 12.3435L1.68698 12.4846C1.30313 12.5019 1 12.8191 1 13.2035V16.7965C1 17.1803 1.30313 17.4981 1.68698 17.5155L4.74029 17.6565C5.02029 17.669 5.26573 17.8421 5.37269 18.0997L5.9999 19.6142C6.10693 19.8727 6.05656 20.169 5.86778 20.3751L3.80781 22.6344C3.54772 22.9197 3.55822 23.3576 3.82985 23.6298L6.37123 26.1696C6.64286 26.4418 7.08025 26.4512 7.36556 26.1927L9.6248 24.1322C9.83037 23.9439 10.1283 23.892 10.3863 23.9991L11.9008 24.6268C12.1589 24.7337 12.3308 24.9803 12.3434 25.2598L12.484 28.313C12.5018 28.6969 12.8196 29 13.2035 29H16.7969C17.1808 29 17.4975 28.6969 17.5154 28.313L17.657 25.2598C17.6695 24.9803 17.8416 24.7337 18.0996 24.6268L19.6141 23.9991C19.8721 23.892 20.169 23.9439 20.3756 24.1322L22.6348 26.1927C22.9191 26.4512 23.3575 26.4418 23.6301 26.1696L26.1695 23.6298C26.4411 23.3576 26.4505 22.9197 26.1925 22.6344L24.1325 20.3751C23.9438 20.169 23.8913 19.8727 23.9983 19.6142L24.6276 18.0997C24.7336 17.8421 24.98 17.669 25.2591 17.6565L28.3134 17.5155C28.6973 17.4981 28.9993 17.1803 28.9993 16.7965V13.2035C28.9995 12.8191 28.6974 12.5019 28.3136 12.4846ZM15.0003 19.5728C12.4757 19.5728 10.4272 17.5254 10.4272 15.0003C10.4272 12.4746 12.4757 10.4272 15.0003 10.4272C17.5249 10.4272 19.5723 12.4746 19.5723 15.0003C19.5723 17.5254 17.5249 19.5728 15.0003 19.5728Z" fill="#F2BFCB"/>
</svg>
