<svg width="18" height="16" viewBox="0 0 18 16" fill="none" xmlns="http://www.w3.org/2000/svg">
<path d="M17.6729 13.2878L10.5237 0.90444C10.2016 0.34657 9.60137 0 8.95712 0C8.31289 0 7.71317 0.34657 7.39131 0.90444L0.241584 13.2872C-0.080528 13.8451 -0.080528 14.5379 0.241584 15.0958C0.563696 15.6537 1.16369 16 1.80764 16H16.1069C16.7509 16 17.3514 15.6537 17.673 15.0958C17.9951 14.5379 17.9951 13.8451 17.6729 13.2878ZM8.9574 13.9635C8.3392 13.9635 7.83728 13.4621 7.83728 12.8437C7.83728 12.2255 8.3392 11.7241 8.9574 11.7241C9.57555 11.7241 10.077 12.2255 10.077 12.8437C10.077 13.4621 9.57555 13.9635 8.9574 13.9635ZM9.64725 10.3797C9.64725 10.7607 9.33815 11.0693 8.9574 11.0693C8.57608 11.0693 8.26751 10.7607 8.26751 10.3797L7.83728 5.31586C7.83728 4.69739 8.3392 4.19603 8.9574 4.19603C9.57555 4.19603 10.077 4.69743 10.077 5.31586L9.64725 10.3797Z" fill="#E76584"/>
</svg>
