<svg width="25" height="28" viewBox="0 0 25 28" fill="none" xmlns="http://www.w3.org/2000/svg">
<path d="M22.0965 7.20337H2.13254L0 27.9999H24.2291L22.0965 7.20337ZM6.69184 12.034C6.19806 12.034 5.79824 11.6337 5.79824 11.1404C5.79824 10.647 6.19806 10.2468 6.69184 10.2468C7.18566 10.2468 7.58543 10.647 7.58543 11.1404C7.58548 11.6337 7.18566 12.034 6.69184 12.034ZM17.5368 12.034C17.0429 12.034 16.6432 11.6337 16.6432 11.1404C16.6432 10.647 17.043 10.2468 17.5368 10.2468C18.0305 10.2468 18.4303 10.647 18.4303 11.1404C18.4303 11.6337 18.0305 12.034 17.5368 12.034Z" fill="#F2BFCB"/>
<path d="M8.74436 2.82559C9.60914 1.96224 10.796 1.43024 12.1145 1.4298C13.4331 1.43024 14.62 1.96224 15.4847 2.82559C16.3481 3.69037 16.8801 4.8772 16.8806 6.19577H18.3103C18.3098 2.77342 15.5368 0.000492187 12.1145 0C8.69225 0.000492187 5.91921 2.77342 5.91872 6.19577H7.34852C7.34901 4.8772 7.88101 3.69037 8.74436 2.82559Z" fill="#F2BFCB"/>
</svg>
