<svg width="62" height="58" viewBox="0 0 62 58" fill="none" xmlns="http://www.w3.org/2000/svg">
<path d="M13.1084 57.0285C13.0009 57.0285 12.9292 56.9447 12.9292 56.8489C12.9173 56.7532 13.0009 56.6693 13.0965 56.6693C14.3862 56.6574 15.5806 56.1547 16.4881 55.2452C16.5599 55.1732 16.6197 55.0896 16.6913 55.0178L14.8521 53.1746C14.7923 53.1028 14.7923 52.995 14.8521 52.9232C14.9237 52.8515 15.0431 52.8515 15.1148 52.9232L16.9182 54.7306C17.5391 53.9047 17.8736 52.8993 17.8736 51.846C17.8736 51.7384 17.9452 51.6666 18.0408 51.6545C18.1484 51.6545 18.2318 51.7384 18.2318 51.8341C18.2318 52.995 17.8615 54.0841 17.1809 54.9938L18.7096 56.5258C18.7812 56.5975 18.7812 56.7173 18.7096 56.789C18.6498 56.8608 18.5305 56.8608 18.4587 56.789L16.9421 55.2692C16.8824 55.3409 16.8108 55.4246 16.739 55.4965C15.7717 56.4778 14.4818 57.0164 13.1084 57.0285Z" fill="#6D2133"/>
<path d="M13.1093 57.2219H13.1084C12.9036 57.2219 12.7424 57.064 12.7365 56.8605C12.7283 56.7668 12.7597 56.6725 12.8234 56.6002C12.8929 56.5213 12.9925 56.4759 13.0965 56.4759C14.3264 56.4646 15.4831 55.9789 16.3518 55.1085C16.378 55.0822 16.4023 55.0541 16.4263 55.0258L14.7157 53.3114C14.5836 53.1539 14.5836 52.944 14.7039 52.7994C14.8695 52.6313 15.1091 52.6441 15.2512 52.7865L16.8938 54.4328C17.4094 53.6732 17.6807 52.7837 17.6807 51.8461C17.6807 51.6453 17.8188 51.4878 18.0167 51.4627L18.0408 51.4612C18.2526 51.4612 18.4249 51.6285 18.4249 51.8342C18.4249 52.9684 18.0827 54.0503 17.4339 54.9738L18.846 56.3891C18.9172 56.4603 18.9563 56.5556 18.9563 56.6574C18.9563 56.7592 18.9172 56.8546 18.846 56.9258C18.7965 56.9866 18.7046 57.0314 18.6057 57.0359C18.5006 57.0389 18.3973 57.0006 18.3225 56.926L16.9522 55.5527C16.9273 55.58 16.9015 55.6072 16.8755 55.6333C15.8784 56.6448 14.5408 57.2093 13.1101 57.2219H13.1093Z" fill="#6D2133"/>
<path d="M26.0653 50.9245V55.8915C26.2564 55.6881 26.4714 55.4726 26.4714 55.4726C26.543 55.4009 26.6504 55.4009 26.7222 55.4726C26.7938 55.5444 26.7938 55.6641 26.7222 55.724L26.0653 56.3942V57.2439C26.0653 57.3995 26.0056 57.5432 25.8981 57.6509C25.7905 57.7466 25.6473 57.8065 25.5039 57.8065C25.3486 57.8065 25.2054 57.7466 25.0978 57.6509C24.9904 57.5432 24.9307 57.3995 24.9307 57.2439C24.9307 57.1004 24.9904 56.9566 25.0978 56.849L25.7071 56.2505V50.9245C25.7071 50.8288 25.7787 50.7451 25.8861 50.7451C25.9816 50.7451 26.0653 50.8288 26.0653 50.9245ZM25.7071 56.7532C25.5279 56.9208 25.3607 57.1004 25.3607 57.1004C25.3128 57.1362 25.2889 57.1961 25.2889 57.2439C25.2889 57.3037 25.3128 57.3517 25.3607 57.3876C25.3965 57.4354 25.4442 57.4475 25.5039 57.4475C25.5518 57.4475 25.5995 57.4354 25.6473 57.3876C25.6831 57.3517 25.7071 57.3037 25.7071 57.2439V56.7532ZM28.7405 55.3888L27.3074 53.9526C27.2357 53.8808 27.2357 53.7732 27.3074 53.7012C27.379 53.6294 27.4866 53.6294 27.5582 53.7012L28.9913 55.1255C29.0629 55.1973 29.0629 55.317 28.9913 55.3888C28.9195 55.4607 28.8002 55.4607 28.7405 55.3888Z" fill="#6D2133"/>
<path d="M25.504 57.9999C25.3077 57.9999 25.1179 57.9274 24.9698 57.7955C24.8172 57.6431 24.7378 57.4499 24.7378 57.2439C24.7378 57.0484 24.8193 56.8547 24.9615 56.7123L25.5142 56.1693V50.9246C25.5142 50.7155 25.6776 50.5518 25.8862 50.5518C26.0879 50.5518 26.2584 50.7225 26.2584 50.9246V55.4134C26.3055 55.3656 26.3351 55.3359 26.3351 55.3359C26.4817 55.189 26.7118 55.1888 26.8586 55.3357C26.9333 55.4107 26.9733 55.514 26.9686 55.6196C26.9642 55.7189 26.9194 55.8111 26.8459 55.8725L26.2584 56.4732V57.2439C26.2584 57.4499 26.1789 57.6431 26.0347 57.7876C25.8804 57.9255 25.69 57.9999 25.504 57.9999ZM25.5013 57.2535L25.51 57.2537L25.5102 57.2233C25.5051 57.229 25.5021 57.232 25.5019 57.2324L25.4912 57.2437L25.5013 57.2535ZM28.8615 55.6362C28.8558 55.6362 28.8502 55.636 28.8445 55.6358C28.7492 55.6315 28.6604 55.5896 28.5992 55.5206L27.171 54.0893C27.0243 53.9424 27.0243 53.712 27.1708 53.5647C27.3128 53.4221 27.5521 53.4219 27.6946 53.5645L29.1272 54.9883C29.2755 55.1369 29.2755 55.3775 29.1277 55.5255C29.0571 55.5964 28.9608 55.6362 28.8615 55.6362Z" fill="#6D2133"/>
<path d="M38.8551 56.5258V52.4805H34.4125C34.3169 52.4805 34.2333 52.3968 34.2333 52.3009C34.2333 52.2053 34.3169 52.1215 34.4125 52.1215H38.8551V51.9179C38.8551 51.6068 39.1059 51.3555 39.4165 51.3555C39.7271 51.3555 39.9897 51.6068 39.9897 51.9179C39.9897 52.2291 39.7271 52.4805 39.4165 52.4805H39.2133V56.5258C39.2133 56.8371 38.9627 57.0883 38.6522 57.0883H34.4125C34.3169 57.0883 34.2333 57.0165 34.2333 56.9088C34.2333 56.8131 34.3169 56.7292 34.4125 56.7292H38.6522C38.7716 56.7292 38.8551 56.6456 38.8551 56.5258ZM39.2133 52.1215H39.4165C39.536 52.1215 39.6315 52.0257 39.6315 51.9179C39.6315 51.7983 39.536 51.7145 39.4165 51.7145C39.3091 51.7145 39.2133 51.7983 39.2133 51.9179V52.1215Z" fill="#6D2133"/>
<path d="M38.6523 57.2817H34.4126C34.204 57.2817 34.0404 57.1179 34.0404 56.9089C34.0404 56.7066 34.2108 56.5359 34.4126 56.5359H38.6523L38.6622 56.5259V52.6739H34.4126C34.2108 52.6739 34.0404 52.5031 34.0404 52.3009C34.0404 52.0988 34.2108 51.9281 34.4126 51.9281H38.6622V51.9179C38.6622 51.5011 39.0007 51.1621 39.4166 51.1621C39.8391 51.1621 40.1828 51.5011 40.1828 51.9179C40.1828 52.3347 39.8391 52.6739 39.4166 52.6739H39.4064V56.5259C39.4064 56.9427 39.0682 57.2817 38.6523 57.2817ZM39.4157 51.9281H39.4166C39.4303 51.9281 39.4381 51.9185 39.4388 51.9156C39.4373 51.9126 39.4307 51.9079 39.4166 51.9079L39.4157 51.9281Z" fill="#6D2133"/>
<path d="M48.2413 53.2584L48.2532 52.1933H45.4348C45.3392 52.1933 45.2556 52.1094 45.2556 52.0139C45.2556 51.906 45.3392 51.8343 45.4348 51.8343H48.2532V51.6188C48.2532 51.3076 48.504 51.0564 48.8145 51.0564C49.1249 51.0564 49.3757 51.3076 49.3757 51.6188C49.3757 51.93 49.1249 52.1933 48.8145 52.1933H48.6114C48.6114 52.5285 48.5995 53.2584 48.5995 53.2584C48.5995 54.2758 48.2055 55.2332 47.4888 55.9514C46.7724 56.6694 45.8169 57.0645 44.8018 57.0645C44.7062 57.0645 44.6226 56.9928 44.6226 56.8849C44.6226 56.7892 44.7062 56.7053 44.8018 56.7053C45.7214 56.7053 46.5931 56.3463 47.238 55.7001C47.8949 55.0417 48.2413 54.18 48.2413 53.2584ZM48.6114 51.8343H48.8145C48.922 51.8343 49.0175 51.7385 49.0175 51.6188C49.0175 51.5112 48.922 51.4154 48.8145 51.4154C48.6951 51.4154 48.6114 51.5112 48.6114 51.6188V51.8343ZM49.1609 55.4846L50.7015 57.0286C50.7612 57.1004 50.7612 57.2081 50.7015 57.2798C50.6299 57.3518 50.5104 57.3518 50.4388 57.2798L48.9101 55.736C48.8385 55.6761 48.8385 55.5564 48.9101 55.4846C48.9698 55.4128 49.0891 55.4128 49.1609 55.4846Z" fill="#6D2133"/>
<path d="M50.5701 57.5272C50.4683 57.5272 50.3732 57.4878 50.3021 57.4164L48.7731 55.8721C48.713 55.823 48.6683 55.7309 48.6638 55.6315C48.6591 55.526 48.699 55.4227 48.7736 55.3479C48.8232 55.2871 48.915 55.2423 49.0139 55.2378C49.1223 55.2333 49.2223 55.2731 49.2971 55.3477L50.8379 56.8919C50.97 57.0493 50.97 57.2593 50.8496 57.4037C50.767 57.4878 50.6719 57.5272 50.5701 57.5272ZM49.0516 55.6057L49.0565 55.6106C49.0571 55.6098 49.0576 55.6093 49.0582 55.6085C49.0557 55.6081 49.0537 55.6072 49.0516 55.6057ZM49.0337 55.5875L49.0427 55.5966C49.0401 55.5936 49.0373 55.5904 49.0337 55.5875ZM44.8017 57.2579C44.5931 57.2579 44.4296 57.094 44.4296 56.8849C44.4296 56.6827 44.5999 56.512 44.8017 56.512C45.6744 56.512 46.4912 56.1751 47.1015 55.5634C47.7121 54.9515 48.0483 54.133 48.0483 53.2584V53.2564L48.0581 52.3867H45.4347C45.2329 52.3867 45.0626 52.216 45.0626 52.0139C45.0626 51.8048 45.2261 51.6409 45.4347 51.6409H48.0602V51.6188C48.0602 51.202 48.3986 50.863 48.8145 50.863C49.2304 50.863 49.5687 51.202 49.5687 51.6188C49.5687 52.0422 49.2304 52.3867 48.8145 52.3867H48.8034C48.8008 52.7508 48.7925 53.2616 48.7925 53.2616C48.7925 54.3288 48.3779 55.3339 47.6252 56.0882C46.8726 56.8425 45.8699 57.2579 44.8017 57.2579ZM48.8043 51.6409H48.8145C48.8149 51.6404 48.8245 51.6326 48.8245 51.6188H48.8043V51.6409Z" fill="#6D2133"/>
<path d="M54.5151 23.4069L51.8506 26.0369L52.3922 26.5879L55.0567 23.958L54.5151 23.4069Z" fill="#6D2133"/>
<path d="M8.54297 25L6.23638 22.7042C6.08399 22.5524 6 22.3497 6 22.1337C6 21.9175 6.08399 21.7149 6.23629 21.5632L8.57771 19.2327C8.88938 18.9224 9.39662 18.9224 9.70847 19.2327L12 21.5135L11.4784 22.0483L9.1869 19.7675C9.16404 19.7446 9.12214 19.7446 9.09928 19.7675L6.75795 22.0978C6.74815 22.1076 6.74307 22.1197 6.74307 22.1337C6.74307 22.1476 6.74815 22.1597 6.75804 22.1695L9.06454 24.4652L8.54297 25Z" fill="#6D2133"/>
<path d="M5.11873 22C5.0177 22 4.91657 21.9657 4.83891 21.897L0.253737 17.8388C0.0901267 17.6939 0 17.5005 0 17.2942C0 17.0878 0.0901267 16.8944 0.253737 16.7496L3.10937 14.222C3.44418 13.926 3.98854 13.926 4.32316 14.222L8.88118 18.2563C9.03797 18.3951 9.03982 18.6218 8.88536 18.7628C8.7307 18.9036 8.47833 18.9053 8.32153 18.7665L3.76352 14.7323C3.7386 14.7103 3.69364 14.7104 3.66891 14.7323L0.813379 17.2598C0.802672 17.2692 0.797319 17.2808 0.797319 17.2942C0.797319 17.3076 0.802672 17.3192 0.813379 17.3285L5.39855 21.3867C5.55535 21.5256 5.55719 21.7523 5.40273 21.8932C5.32468 21.9643 5.2217 22 5.11873 22Z" fill="#6D2133"/>
<path d="M54.8437 23C54.6672 23 54.4907 22.9353 54.3563 22.8059L52.2044 20.7345C52.0725 20.6075 52 20.4381 52 20.2573C52 20.0766 52.0725 19.9071 52.2042 19.7803L55.291 16.8091L55.8283 17.3421L52.7999 20.2573L54.8439 22.2248L60.9088 16.3865L60.7112 16.1963C60.0412 16.5736 58.2427 17.5127 57.0051 17.4755C55.9577 17.4415 55.6666 17.0758 55.6066 16.775C55.5202 16.3413 55.8861 15.9126 56.6104 15.5985C57.1654 15.3581 59.586 15.0577 60.0656 15L60.1474 15.6489C60.317 15.5569 60.4604 15.4743 60.5676 15.4094L60.8236 15.2542L62 16.3865L55.3313 22.806C55.1969 22.9353 55.0204 23 54.8437 23ZM56.3937 16.6205C56.4743 16.6578 56.6574 16.7155 57.0306 16.7276C57.8241 16.7542 59.0796 16.2061 59.9141 15.7728C58.8338 15.9086 57.2445 16.1424 56.9212 16.2825C56.6088 16.4179 56.4564 16.5478 56.3937 16.6205Z" fill="#6D2133"/>
<path d="M51.0899 20.0592L48.4427 22.6721L48.9843 23.2232L51.6315 20.6103L51.0899 20.0592Z" fill="#6D2133"/>
<path d="M35.7991 39C35.7749 39 35.7512 38.9915 35.7317 38.9759C35.7066 38.9555 35.691 38.9246 35.6893 38.8912C35.6558 38.2382 35.6386 37.6318 35.6386 37.0892C35.6386 33.7591 35.7764 30.7426 36.0483 28.1141C35.2473 29.2996 34.6282 30.2838 34.2055 31.0437L33.6011 32.1138C32.7823 33.5682 32.1108 34.991 31.6054 36.342C31.6001 36.3562 31.5919 36.3693 31.5817 36.3801L30.1353 37.9371C30.1143 37.9598 30.0857 37.9721 30.0566 37.9721C30.0441 37.9721 30.0314 37.9697 30.0191 37.9652C29.9784 37.9497 29.9502 37.9108 29.947 37.8658C29.8539 36.5758 29.3493 34.7332 28.4472 32.3889L28.0529 31.3393C27.9999 31.2184 27.8767 30.9096 27.689 30.4273C27.3829 29.667 27.1359 28.9232 26.9524 28.2094L26.2188 32.7988C25.976 34.3668 25.7289 35.4072 25.4634 35.979C25.2397 36.4617 24.8653 36.8767 24.3476 37.2162L26.5115 37.3796C26.5552 37.3829 26.5929 37.413 26.6073 37.4563C26.6216 37.4997 26.6101 37.5477 26.5777 37.5788L25.2999 38.8036C25.2797 38.8229 25.2532 38.8338 25.2257 38.8338L20.9209 38.6053C20.877 38.603 20.8386 38.5735 20.8233 38.5304C20.8082 38.4872 20.819 38.4388 20.8509 38.4073L22.1505 37.1202C22.1709 37.0999 22.198 37.0886 22.226 37.0886C22.229 37.0886 23.3328 37.1855 23.3328 37.1855C23.7403 36.8654 24.0353 36.4721 24.21 36.0159C24.3941 35.5354 24.6123 34.5411 24.8585 33.061L26.0455 25.901H25.7026C22.956 25.901 21.6209 26.7971 21.6209 28.6403C21.6209 29.2138 21.7755 29.7996 22.0805 30.381C22.1045 30.4269 22.096 30.4839 22.0595 30.5197L20.4172 32.1389C20.3966 32.1593 20.3696 32.1703 20.3419 32.1703C20.3325 32.1703 20.3228 32.169 20.3135 32.1664C20.2766 32.1561 20.2477 32.1264 20.2367 32.0882C20.0797 31.5397 20 30.9838 20 30.4362C20 28.6929 20.6473 27.2266 21.9238 26.0781C23.1952 24.9334 24.8146 24.3529 26.7367 24.3529C27.0542 24.3529 27.339 24.3672 27.5831 24.3952C27.7377 24.4084 27.8429 24.4152 27.893 24.4152H28.0238C28.0535 24.4152 28.082 24.4279 28.1029 24.4503C28.1235 24.4727 28.1346 24.5029 28.1335 24.534C28.1271 24.7329 28.1239 24.8768 28.1239 24.966C28.1239 26.0123 28.5772 27.7301 29.4713 30.0716L29.9266 31.2544C29.9879 31.4227 30.0855 31.6967 30.221 32.0778L30.5955 33.1579C30.7684 33.6436 30.9228 34.1296 31.0555 34.6056L31.4487 33.936C32.0199 32.9567 32.5414 32.0491 32.9984 31.239L33.9854 29.4854L34.7497 28.0351L35.6761 26.2909C35.7635 26.131 35.9348 25.8065 36.1894 25.3163C36.1985 25.2986 36.212 25.2838 36.2284 25.2732L38.1801 24.017C38.1977 24.0056 38.2177 24 38.2376 24C38.2592 24 38.2807 24.0066 38.2993 24.0198C38.335 24.0451 38.3532 24.09 38.3458 24.1345C37.9189 26.697 37.7027 28.7821 37.7027 30.3323L37.5711 33.7308L37.5413 35.0058C37.5414 36.0622 37.6079 36.7612 37.739 37.0805C37.8588 37.3723 38.114 37.5139 38.5197 37.5139C38.9818 37.5139 39.4 37.4464 39.7627 37.3129C39.7748 37.3086 39.7871 37.3064 39.7992 37.3064C39.8329 37.3064 39.8655 37.3226 39.8867 37.3517C39.9629 37.4563 40 37.5505 40 37.6395C40 37.9313 39.7472 38.1341 39.2276 38.2597L38.6932 38.3946L35.8207 38.9976C35.8135 38.9992 35.8063 39 35.7991 39Z" fill="#6D2133"/>
<path d="M12.0557 8L11 5.38438L16.9443 3L18 5.61552L12.0557 8ZM12.0244 5.82614L12.4877 6.97407L16.9756 5.17376L16.5123 4.02593L12.0244 5.82614Z" fill="#6D2133"/>
<path d="M17.3307 17L12 8.3222L18.0253 6L21 15.5558L20.2848 15.7662L17.5454 6.96656L13.092 8.68282L17.9724 16.6275L17.3307 17Z" fill="#6D2133"/>
<path d="M47.0329 10L43 8.56097L43.9672 6L48 7.43912L47.0329 10ZM43.9555 8.12346L46.5955 9.06544L47.0445 7.87663L44.4047 6.93456L43.9555 8.12346Z" fill="#6D2133"/>
<path d="M45.5675 19L44.8527 18.7378L47.1592 12.6755C47.2709 12.3818 47.261 12.0686 47.1315 11.7937C47.0115 11.5394 46.8004 11.3479 46.5369 11.2546L42.4597 9.81025C41.8911 9.60881 41.2452 9.92231 41.0217 10.5102L38.7147 16.5727L38 16.3103L40.3067 10.2479C40.6758 9.27747 41.7578 8.76481 42.7187 9.1053L46.7959 10.5497C47.2526 10.7114 47.6178 11.0414 47.8241 11.4788C48.04 11.9369 48.0577 12.4549 47.8742 12.9377L45.5675 19Z" fill="#6D2133"/>
<path d="M31.7075 7H28.2924L28.2023 6.76174C28.0016 6.23074 27 3.5472 27 2.86761C26.9999 2.02401 27.3233 1.27143 27.9106 0.748433C28.4526 0.265837 29.1945 0 29.9998 0C31.7382 0 33 1.20596 33 2.86761C33 3.5472 31.9984 6.23074 31.7976 6.76174L31.7075 7ZM28.7471 6.2101H31.2528C31.7865 4.77794 32.3091 3.19391 32.3091 2.86761C32.3091 1.44007 31.1121 0.789895 29.9998 0.789895C29.3477 0.789895 28.7564 0.996529 28.3352 1.37161C27.9137 1.74699 27.6908 2.26429 27.6908 2.86752C27.6908 3.19391 28.2134 4.77803 28.7471 6.2101Z" fill="#6D2133"/>
<path d="M28 11V8H32L31.9998 10.9998L28 11ZM28.7568 8.7138V10.2862L31.243 10.286L31.2432 8.7138H28.7568Z" fill="#6D2133"/>
<path d="M28.1102 16C27.9295 13.6599 28.006 12.298 28.0927 11.3729L28.1277 11.0002L31.7497 11L31.8176 11.7111C31.9104 12.6528 32.0374 13.9425 31.9896 15.8402L31.2906 15.8148C31.3363 13.9989 31.216 12.7522 31.126 11.8392L28.7559 11.8394C28.6897 12.7125 28.6547 13.9564 28.8064 15.9226L28.1102 16Z" fill="#6D2133"/>
<path d="M44.278 48H15.7221C10.3614 48 6 43.6971 6 38.4082V37.536C6 26.2124 15.3376 17 26.8152 17H33.185C44.6624 17 54 26.2124 54 37.536V38.4082C54 43.6971 49.6386 48 44.278 48ZM26.8152 17.7611C15.763 17.7611 6.77144 26.632 6.77144 37.536V38.4082C6.77144 43.2774 10.7867 47.2389 15.7221 47.2389H44.278C49.2134 47.2389 53.2286 43.2774 53.2286 38.4082V37.536C53.2286 26.632 44.2371 17.7611 33.185 17.7611H26.8152Z" fill="#6D2133"/>
</svg>
